<?xml version="1.0" encoding="utf-8"?>
<!-- Generator: Adobe Illustrator 23.0.6, SVG Export Plug-In . SVG Version: 6.00 Build 0)  -->
<svg version="1.1" id="Layer_1" xmlns="http://www.w3.org/2000/svg" xmlns:xlink="http://www.w3.org/1999/xlink" x="0px" y="0px"
	 viewBox="0 0 226.77 170.24" style="enable-background:new 0 0 226.77 170.24;" xml:space="preserve">
<g>
	<g>
		<path d="M81,53.86C63.08,48.2,42.53,51.93,29.09,65.5c-6.45,6.51-10.93,14.88-13.05,23.78c-2.31,9.65-1.52,19.35,1.4,28.78
			c1.62,5.24,3.57,10.47,5.82,15.47c1.95,4.32,4.36,8.39,7.55,11.92c5.78,6.39,13.49,10.67,21.64,13.25
			c8.67,2.74,18.01,3.81,27.07,3.21c10.97-0.73,21.65-3.72,31.92-7.52c10.62-3.93,20.95-8.61,31.35-13.09c11-4.74,22-9.47,33-14.21
			c5.07-2.18,10.25-4.79,15.8-5.47c2.05-0.25,3.72-0.19,5.6,0.68c2.1,0.96,3.97,2.53,5.13,4.53c2.37,4.08,1.95,9.29-0.14,13.38
			c-2.21,4.32-6.06,7.58-10.14,10.06c-8.57,5.22-19.05,7.56-29.03,6.57c-9.68-0.95-19.01-5.5-26.77-11.21
			c-2.01-1.48-3.94-3.07-5.79-4.76c-1.72-1.57-3.32-3.3-5.2-4.68c-1.98-1.45-4.2-2.24-6.62-2.61c-2.16-0.34-4.37-0.44-6.29,0.78
			c-1.44,0.92-2.78,2.51-2.63,4.32c0.15,1.85,1.71,2.96,3.35,3.45c2.11,0.63,4.49,0.91,6.68,0.58c2.11-0.32,4-1.21,5.87-2.19
			c8.45-4.41,15.81-10.88,21.23-18.73c5.79-8.38,9.1-18.11,11.86-27.83c5-17.62,8.96-37.26,23.13-50.16
			c3.2-2.91,6.84-5.26,10.84-6.9c0.33-0.13-1.15-0.52-1.2-0.53c-0.87-0.19-1.83-0.38-2.72-0.31c-8.78,0.65-17.3,3.53-24.64,8.41
			c-7.7,5.11-13.32,12.17-18.01,20.04c-2.44,4.09-4.66,8.29-7.02,12.42c-2.49,4.37-5.21,8.6-8.14,12.68
			c-5.69,7.92-11.9,15.54-18.31,22.88c-5.74,6.58-11.98,12.93-19.34,17.7c-7.05,4.57-15.53,7.9-24.06,7.41
			c-8.2-0.47-15.47-6.45-18.21-14.06c-2.86-7.95-0.84-16.47,4.77-22.67c6.17-6.81,15.08-10.05,23.99-11.29
			c5.01-0.69,10.07-0.86,15.12-0.96c5.45-0.11,10.91-0.17,16.36-0.22c10.79-0.11,21.59-0.21,32.37-0.65
			c5.41-0.22,10.82-0.53,16.21-0.96c5.08-0.41,10.22-0.8,15.23-1.72c4.77-0.87,8.99-2.63,12.83-5.59c3.66-2.82,7.3-5.95,10.44-9.35
			c3.07-3.33,5.44-7.18,6.39-11.66c0.96-4.54,0.54-9.29-0.76-13.71c-2.68-9.13-9.13-16.52-15.7-23.12
			c-3.33-3.35-6.71-6.74-10.64-9.4c-3.98-2.7-8.45-4.25-13.17-5.11c-4.98-0.91-10.05-1.19-15.11-1.38
			c-5.13-0.19-10.29-0.15-15.36,0.7c-8.06,1.34-15.71,4.81-22.16,9.8c-6.61,5.12-12.57,12.21-15.32,20.21
			c-3.13,9.11,0.92,19.31,6.04,26.91c2.37,3.52,5.21,6.69,8.42,9.45c0.6,0.51,1.94,0.54,2.68,0.62c0.22,0.03,1.82,0.08,1.6-0.12
			c-6.91-5.93-12.16-13.93-14.5-22.77c-1.29-4.86-1.3-9.76,0.56-14.48c1.59-4.05,4.01-7.82,6.75-11.19
			c5.23-6.42,12.08-11.49,19.73-14.64c9.12-3.76,18.71-3.98,28.44-3.42c4.75,0.27,9.4,0.75,13.72,2.9
			c4.26,2.13,7.86,5.37,11.25,8.66c6.8,6.6,13.76,13.72,17.31,22.68c3.43,8.65,3.23,18.45-2.59,26.01
			c-2.81,3.65-6.39,6.65-9.89,9.62c-3.8,3.24-7.74,5.78-12.63,7c-5,1.25-10.26,1.59-15.39,2.04c-5.39,0.47-10.8,0.8-16.21,1.05
			c-10.79,0.48-21.6,0.6-32.4,0.71c-10.35,0.11-20.85-0.19-31.15,0.93c-8.87,0.96-17.71,3.45-24.54,9.44
			c-6.23,5.46-9.7,13.43-8.06,21.72c1.6,8.09,7.45,14.23,15.18,16.86c8.16,2.77,17.22,2.79,25.38,0.08
			c8.04-2.67,15.08-7.65,21.24-13.36c6.52-6.05,12.18-12.96,17.78-19.85c6.44-7.94,12.64-16.06,17.75-24.94
			c4.68-8.13,8.79-16.71,14.91-23.9c5.8-6.81,13.39-11.95,21.83-14.89c4.11-1.43,8.39-2.32,12.73-2.64
			c-1.31-0.28-2.62-0.56-3.93-0.85c-16.47,6.72-24.67,24.23-29.46,40.26c-2.87,9.6-5.02,19.43-8.53,28.83
			c-3.39,9.11-8.21,17.56-15.19,24.4c-3.43,3.37-7.28,6.32-11.44,8.75c-1.91,1.11-3.9,2.25-5.99,2.97c-0.88,0.3-1.83,0.34-2.69,0.61
			c-1.01,0.32,0.97-0.05,1.03,0.28c0-0.01-0.45-0.22-0.5-0.25c-0.47-0.29-0.87-0.7-1.15-1.17c-0.96-1.63-0.25-3.51,0.98-4.76
			c0.7-0.71,1.58-1.24,2.53-1.55c0.2-0.07,0.43-0.09,0.63-0.17c1.27-0.46-0.8,0.11-0.64-0.18c0.06-0.11,1.66,0.8,1.84,0.91
			c1.96,1.22,3.59,2.9,5.26,4.48c1.77,1.67,3.61,3.25,5.54,4.73c15.22,11.7,36.37,17.15,55.05,11.5c4.64-1.41,9.1-3.52,13.05-6.35
			c3.6-2.58,6.89-5.92,8.5-10.13c1.57-4.12,1.45-9.09-1.22-12.74c-2.61-3.57-6.98-4.99-11.18-5.62c-5.06-0.77-9.86-0.04-14.65,1.71
			c-5.3,1.93-10.43,4.37-15.61,6.6c-10.54,4.54-21.07,9.08-31.61,13.62c-10.13,4.36-20.21,8.89-30.67,12.43
			c-9.89,3.35-20.31,5.89-30.8,5.89c-17.09-0.01-34.28-8.19-42.4-23.71c-2.42-4.63-4.25-9.59-5.99-14.51
			c-1.75-4.94-3.24-10.01-3.87-15.23c-1.07-8.91,0.35-18.08,3.9-26.32C26.8,73.13,32.56,65.8,40,60.69
			c7.43-5.11,16.34-8.09,25.34-8.5c4.32-0.2,8.56,0.27,12.7,1.54c0.92,0.28,1.94,0.48,2.9,0.49C81.59,54.23,81.75,54.1,81,53.86
			L81,53.86z"/>
	</g>
</g>
</svg>
