<svg id="Layer_1" data-name="Layer 1" xmlns="http://www.w3.org/2000/svg" viewBox="0 0 447.12 633.61"><defs><style>.cls-1{fill:#e3b697;}.cls-2{fill:#3c2415;}.cls-3{fill:#bd9980;}.cls-4{fill:#231f20;}.cls-5{fill:#d02026;}.cls-6{fill:#fff;}.cls-7{fill:#387479;stroke:#231f20;stroke-miterlimit:10;stroke-width:2.43px;}.cls-8{fill:#010101;}.cls-9{fill:#27aae1;opacity:0.15;}</style></defs><title>Alex Ilustracija</title><path class="cls-1" d="M399.34,289.81l-32.73,28.6,9.58,28.23,19.14-5.4,17.82-20.06s-4.39-5-14.88,4.7c0,0-17.08-19.68-12.13-1.56S398,310.74,399.34,289.81Z" transform="translate(-44.99 -63.23)"/><path class="cls-1" d="M167.09,416.36s79.5,182.88-112.55,200.5c0,0,202.85,191.18,432.89-17.62.9.58-160.2,0-147.24-144.91C356.62,270.63,167.09,416.36,167.09,416.36Z" transform="translate(-44.99 -63.23)"/><path class="cls-1" d="M339.47,472.64S345,543.33,414.93,582,281.87,613,281.87,613V549Z" transform="translate(-44.99 -63.23)"/><path class="cls-2" d="M125.89,307.67s-23.53-87,12-143.31l77-49.32s72.48-18.25,98.64,4.32,70.32,35.77,82.74,88.09c12.5,52.62,7.74,110.66-12.54,123.24S125.89,307.67,125.89,307.67Z" transform="translate(-44.99 -63.23)"/><path class="cls-1" d="M382.43,382c-6.24,14.89-20.42,39-35.45,64.63l-13.63-58.36Z" transform="translate(-44.99 -63.23)"/><path class="cls-2" d="M212.93,112.64s-3.27-69.4-83.88-39.18c0,0-20.23,13.39-22.25,19.32s-19,30.89,32.51,72.54S212.93,112.64,212.93,112.64Z" transform="translate(-44.99 -63.23)"/><path class="cls-2" d="M370.19,176.12c27.36,0,44.22-32.1,44.22-32.1,21.36-60.54-54.19-78.82-52.78-76-43.58,3.55-49,50.46-49,50.46Z" transform="translate(-44.99 -63.23)"/><path class="cls-1" d="M127,312.45c-2.34-5.52,1.33-10,3-15.7,5.62-18.77,23.05-58.87,62.32-93,54.11-47.07,96.63-47.34,114.21-46.38,4.82.26,9.21-1.57,13.06,1.06,11.77,8,39.7,25.11,64.62,98.07.52,1.5.47,4.33.59,5.92,1.07,13.42,22.35,95.17-.59,101.41C357.86,371,364.85,424.52,343,453c-18.42,24-65,76.73-124.35,35.5C153.18,443,144,374.07,134.36,334.36A133.57,133.57,0,0,0,127,312.45Z" transform="translate(-44.99 -63.23)"/><path class="cls-1" d="M143.15,342s-22-19.53-26.26-20.69-14.22,8.53,5.06,52.65S183,385.16,183,385.16Z" transform="translate(-44.99 -63.23)"/><path class="cls-3" d="M140.75,335.62A157.81,157.81,0,0,0,148.12,351l1,1.86,1.07,1.83c.72,1.22,1.41,2.44,2.2,3.62,1.47,2.41,3,4.77,4.65,7.08.81,1.15,1.6,2.32,2.43,3.46l2.55,3.39,2.61,3.34c.92,1.07,1.8,2.18,2.7,3.27a145.59,145.59,0,0,0,11.72,12.41,64.66,64.66,0,0,1-13.58-10.7c-1-1-2-2.08-3-3.14l-2.85-3.28c-.92-1.11-1.79-2.27-2.69-3.41s-1.71-2.33-2.56-3.5c-1.61-2.41-3.19-4.83-4.62-7.36-.73-1.25-1.38-2.54-2-3.83l-1-1.93-.88-2A67.38,67.38,0,0,1,140.75,335.62Z" transform="translate(-44.99 -63.23)"/><path class="cls-1" d="M384.21,334.76s24.38-19.46,28.34-16.34c3.32,2.61,7.15,45.79-16.16,65.41-22,18.52-36.92,4.21-36.92,4.21Z" transform="translate(-44.99 -63.23)"/><path class="cls-4" d="M396.06,331a27.22,27.22,0,0,1,3.63-2.46,11.08,11.08,0,0,1,4.25-1.47,4.54,4.54,0,0,1,2.4.43,4.37,4.37,0,0,1,1.74,1.8,9.93,9.93,0,0,1,.94,4.55,33.73,33.73,0,0,1-1.34,8.81,71.5,71.5,0,0,1-2.93,8.33,69.6,69.6,0,0,1-8.81,15.22,32.61,32.61,0,0,1-6.25,6.28,13.12,13.12,0,0,1-4,2,6.9,6.9,0,0,1-2.22.27,5.72,5.72,0,0,1-2.12-.58,5.92,5.92,0,0,0,4.17-.2,12.45,12.45,0,0,0,3.55-2.28,35.87,35.87,0,0,0,5.59-6.44,74,74,0,0,0,4.5-7.32c1.36-2.53,2.62-5.11,3.73-7.76a72.65,72.65,0,0,0,2.95-8.06,35.4,35.4,0,0,0,1.61-8.31,9.17,9.17,0,0,0-.56-3.95,3,3,0,0,0-1.13-1.38,3.61,3.61,0,0,0-1.81-.46,10.42,10.42,0,0,0-4.05,1A40.17,40.17,0,0,0,396.06,331Z" transform="translate(-44.99 -63.23)"/><path class="cls-3" d="M229.67,424.57a160.15,160.15,0,0,0,18.14,6.61A59.48,59.48,0,0,0,266,433.44a80.2,80.2,0,0,0,18.3-3.09c6.12-1.66,12.21-3.84,18.58-5.78A69.46,69.46,0,0,1,286,435.2,53.71,53.71,0,0,1,266.22,440a45.41,45.41,0,0,1-20.14-4A53.29,53.29,0,0,1,229.67,424.57Z" transform="translate(-44.99 -63.23)"/><path class="cls-5" d="M217.07,412.27l33.16-9.36,13.88,3.61,11.34-3.6c14,1.54,28.59,5.41,43.6,10.86l-12.62,7.77-23,9s-26.41,3-27.2,2.17-15.07-4.49-15.07-4.49l-12.81-5.52-14.3-9.3Z" transform="translate(-44.99 -63.23)"/><path class="cls-6" d="M168.36,295.5s28.59-8.84,37.71-5.05,25.7,15.92,25.7,15.92,2.28,1.21-21.64,7.65c-22.58,6.09-37.38-11.48-37.38-11.48l-4.39-4.37-1.27-2Z" transform="translate(-44.99 -63.23)"/><path class="cls-4" d="M132.07,339.08a42.52,42.52,0,0,0-3.85-2,10.27,10.27,0,0,0-4-1,3.6,3.6,0,0,0-1.81.45,3,3,0,0,0-1.13,1.39,9,9,0,0,0-.56,4,35.4,35.4,0,0,0,1.61,8.31,71.39,71.39,0,0,0,3,8.06c1.11,2.64,2.36,5.23,3.73,7.75a74.07,74.07,0,0,0,4.49,7.33,35.86,35.86,0,0,0,5.6,6.43,12.36,12.36,0,0,0,3.54,2.29,6,6,0,0,0,4.17.2,5.86,5.86,0,0,1-2.12.58,6.71,6.71,0,0,1-2.22-.28,13,13,0,0,1-4-2,32.23,32.23,0,0,1-6.24-6.27,71.21,71.21,0,0,1-11.74-23.55,33.8,33.8,0,0,1-1.35-8.81,10.14,10.14,0,0,1,1-4.56,4.23,4.23,0,0,1,1.74-1.79,4.44,4.44,0,0,1,2.4-.43,11,11,0,0,1,4.25,1.47A26.49,26.49,0,0,1,132.07,339.08Z" transform="translate(-44.99 -63.23)"/><path class="cls-3" d="M335.87,469.76c2.51,18.26,7.49,35.79,15.61,51.67a141.2,141.2,0,0,0,32.33,41.72A158.58,158.58,0,0,0,428.94,591c16.57,6.83,34.26,11.06,52.53,13.62a142,142,0,0,1-55.21-6.23,136.18,136.18,0,0,1-49.08-27.72,125,125,0,0,1-32.83-45.94A117.94,117.94,0,0,1,335.87,469.76Z" transform="translate(-44.99 -63.23)"/><path class="cls-3" d="M389.63,327.55a117.84,117.84,0,0,1-4.8,19.93,114,114,0,0,1-8.09,18.95,82,82,0,0,1-11.94,16.94,49,49,0,0,1-16.63,12.13,79.55,79.55,0,0,0,14.05-14.31,129.13,129.13,0,0,0,10.72-16.82c3.2-5.86,6-11.94,8.75-18.09S386.92,333.84,389.63,327.55Z" transform="translate(-44.99 -63.23)"/><path class="cls-6" d="M362.82,295.5s-28.6-8.84-37.71-5.05-25.71,15.92-25.71,15.92-2.28,1.21,21.65,7.65c22.57,6.09,37.38-11.48,37.38-11.48l4.39-4.37,1.27-2Z" transform="translate(-44.99 -63.23)"/><path class="cls-3" d="M184.2,467c.7,2.13,1.33,4.29,2,6.45s1.14,4.36,1.71,6.55l.8,3.29.66,3.33c.41,2.23.88,4.45,1.16,6.71a131.48,131.48,0,0,1,1.35,27.37A105.83,105.83,0,0,1,186.77,548a99.32,99.32,0,0,1-5.39,13l-1.63,3.13c-.53,1.05-1.19,2-1.79,3l-1.83,3-2,2.9a100.36,100.36,0,0,1-9,10.87c-1.62,1.7-3.36,3.27-5,4.91s-3.51,3.08-5.34,4.53a121.56,121.56,0,0,1-23.62,14.48A163.37,163.37,0,0,1,78.83,622c17-5.93,33.59-12.37,48.71-21.1a140.93,140.93,0,0,0,21.21-14.83c1.61-1.41,3.18-2.87,4.76-4.3s3-3,4.45-4.58a94.49,94.49,0,0,0,8-9.89l1.84-2.6,1.67-2.7c.54-.91,1.15-1.77,1.64-2.72l1.5-2.8.77-1.39c.25-.47.45-1,.68-1.44l1.35-2.88c.48-.95.85-1.95,1.24-2.94l1.19-3a117.54,117.54,0,0,0,6.25-25C186.6,502.7,185.76,484.91,184.2,467Z" transform="translate(-44.99 -63.23)"/><path class="cls-1" d="M125.63,302.41" transform="translate(-44.99 -63.23)"/><path class="cls-3" d="M303.33,311.85c5.74.57,11.24,1.4,16.71,1.85a79.05,79.05,0,0,0,16.06,0,39.92,39.92,0,0,0,14.8-4.53,45.49,45.49,0,0,0,12.46-10.45,28.11,28.11,0,0,1-9.85,14.38,33.33,33.33,0,0,1-16.71,6.56,49.68,49.68,0,0,1-17.53-1.3A60.11,60.11,0,0,1,303.33,311.85Z" transform="translate(-44.99 -63.23)"/><path class="cls-4" d="M341.45,287.09a11.44,11.44,0,0,0,6-2.93,28.6,28.6,0,0,0,4.7-5.58,29.13,29.13,0,0,1-3.54,6.64,13.85,13.85,0,0,1-6.32,4.93Z" transform="translate(-44.99 -63.23)"/><path class="cls-4" d="M347.76,289.21a11.46,11.46,0,0,0,6-2.94,28.3,28.3,0,0,0,4.71-5.58,29.19,29.19,0,0,1-3.54,6.65,13.92,13.92,0,0,1-6.32,4.93Z" transform="translate(-44.99 -63.23)"/><path class="cls-4" d="M356,291.2a11.38,11.38,0,0,0,6-2.94,28,28,0,0,0,4.7-5.58,29.19,29.19,0,0,1-3.54,6.65,13.85,13.85,0,0,1-6.32,4.93Z" transform="translate(-44.99 -63.23)"/><path class="cls-4" d="M367.52,296.32a6.84,6.84,0,0,0,3.33-2.27,17.11,17.11,0,0,0,2.36-3.75,17.81,17.81,0,0,1-1.57,4.3,8.33,8.33,0,0,1-3.38,3.49Z" transform="translate(-44.99 -63.23)"/><ellipse class="cls-7" cx="330.71" cy="301.46" rx="13.26" ry="11.72" transform="translate(-68.42 -35.33) rotate(-4.67)"/><circle class="cls-4" cx="285.55" cy="236.15" r="5.43"/><circle class="cls-6" cx="290.77" cy="233.36" r="3.09"/><path class="cls-4" d="M361.4,293.52a9.44,9.44,0,0,0,5.07-2,23.28,23.28,0,0,0,4.21-4.26,24,24,0,0,1-3.32,5.21,11.36,11.36,0,0,1-5.5,3.62Z" transform="translate(-44.99 -63.23)"/><path class="cls-8" d="M299,306.67a46.41,46.41,0,0,1,14.62-13.76c1.46-.9,3.05-1.58,4.59-2.35s3.24-1.2,4.87-1.8c1.68-.41,3.37-.84,5.07-1.16l2.58-.33a22.47,22.47,0,0,1,2.58-.23,54.71,54.71,0,0,1,20.16,3,70.17,70.17,0,0,1,17.83,9c-6.42-1.77-12.66-3.61-18.95-4.86a75.11,75.11,0,0,0-18.75-1.66,19.79,19.79,0,0,0-2.31.18l-2.31.25c-1.53.22-3,.58-4.56.83-1.48.45-3,.82-4.48,1.29l-2.19.82a18.62,18.62,0,0,0-2.18.86A86.6,86.6,0,0,0,299,306.67Z" transform="translate(-44.99 -63.23)"/><path class="cls-8" d="M302.6,310.13c5.69.8,11.29,1.65,16.88,2.11A77.49,77.49,0,0,0,336.1,312a42.93,42.93,0,0,0,15.48-5,43.86,43.86,0,0,0,12.51-11,31.69,31.69,0,0,1-11,13.38,37.09,37.09,0,0,1-16.51,6.22,57,57,0,0,1-17.45-.58A76.42,76.42,0,0,1,302.6,310.13Z" transform="translate(-44.99 -63.23)"/><path class="cls-3" d="M227.15,312.91a64,64,0,0,1-15.68,5.86,50.45,50.45,0,0,1-17.07,1.12,32.15,32.15,0,0,1-16.27-6.45,29.21,29.21,0,0,1-9.77-13.9,51.88,51.88,0,0,0,12.38,10,38.64,38.64,0,0,0,14.37,4.43,87.09,87.09,0,0,0,15.68.18C216.14,313.79,221.54,313.17,227.15,312.91Z" transform="translate(-44.99 -63.23)"/><path class="cls-4" d="M188.92,290.3a13.83,13.83,0,0,1-6.32-4.92,29.55,29.55,0,0,1-3.53-6.65,28.6,28.6,0,0,0,4.7,5.58,11.53,11.53,0,0,0,6,2.94Z" transform="translate(-44.99 -63.23)"/><path class="cls-4" d="M174.42,294.41a13.9,13.9,0,0,1-6.32-4.92,29.19,29.19,0,0,1-3.54-6.65,28.65,28.65,0,0,0,4.71,5.58,11.53,11.53,0,0,0,6,2.94Z" transform="translate(-44.99 -63.23)"/><path class="cls-4" d="M169.31,296.23a11.46,11.46,0,0,1-5.49-3.63,23.71,23.71,0,0,1-3.33-5.21,23.28,23.28,0,0,0,4.21,4.26,9.47,9.47,0,0,0,5.07,2Z" transform="translate(-44.99 -63.23)"/><path class="cls-4" d="M162.91,298.24a8.4,8.4,0,0,1-3.38-3.49,17.78,17.78,0,0,1-1.56-4.3,17.39,17.39,0,0,0,2.35,3.76,7.08,7.08,0,0,0,3.33,2.27Z" transform="translate(-44.99 -63.23)"/><path class="cls-4" d="M182.61,292.42a13.85,13.85,0,0,1-6.32-4.93,29,29,0,0,1-3.54-6.65,28.37,28.37,0,0,0,4.7,5.59,11.44,11.44,0,0,0,6,2.93Z" transform="translate(-44.99 -63.23)"/><ellipse class="cls-7" cx="200.46" cy="301.61" rx="11.72" ry="13.26" transform="translate(-161.45 413.64) rotate(-85.33)"/><circle class="cls-4" cx="155.64" cy="236.3" r="5.43"/><circle class="cls-6" cx="150.41" cy="233.51" r="3.09"/><path class="cls-8" d="M228.57,310.28a76,76,0,0,1-16.52,4.92,56.72,56.72,0,0,1-17.46.58,37.18,37.18,0,0,1-16.51-6.22,31.74,31.74,0,0,1-11-13.38,43.86,43.86,0,0,0,12.51,11,42.5,42.5,0,0,0,15.47,5,77.49,77.49,0,0,0,16.62.22C217.29,311.93,222.88,311.08,228.57,310.28Z" transform="translate(-44.99 -63.23)"/><path class="cls-8" d="M232.21,306.82a86.64,86.64,0,0,0-16.57-9.94,18.83,18.83,0,0,0-2.19-.87l-2.19-.82c-1.48-.47-3-.84-4.47-1.28-1.53-.26-3-.62-4.56-.84l-2.31-.24a18,18,0,0,0-2.32-.19,75.63,75.63,0,0,0-18.75,1.66c-6.28,1.26-12.52,3.1-18.94,4.87a69.71,69.71,0,0,1,17.83-9,54.71,54.71,0,0,1,20.16-3,20.45,20.45,0,0,1,2.58.24l2.58.32c1.7.33,3.39.75,5.06,1.16,1.63.6,3.29,1.11,4.87,1.8s3.13,1.46,4.59,2.35A46.45,46.45,0,0,1,232.21,306.82Z" transform="translate(-44.99 -63.23)"/><path class="cls-9" d="M282.22,293l-29.93-.76c-32.06-21.84-142.92-15-142.92-15,52.59,79.75,60.32,86.28,122.46,75.4l21.88-46.87,0,.2,25.61.92-.42,2c20.05,51.88,37.14,45.68,37.14,45.68,44.3,7.89,55.07-9.65,60.78-15.89s37.57-62.26,37.57-62.26C397.37,270.52,291.19,277.23,282.22,293Z" transform="translate(-44.99 -63.23)"/><path class="cls-4" d="M153.49,402.91a287.86,287.86,0,0,0,18.08,32.25,199.27,199.27,0,0,0,22.67,28.89,132,132,0,0,0,28.33,22.77c2.61,1.53,5.29,2.91,8,4.23s5.51,2.44,8.35,3.41a75.88,75.88,0,0,0,17.48,4,72.39,72.39,0,0,0,35.18-4.82,88.5,88.5,0,0,0,16-8.32,115.72,115.72,0,0,0,14.35-11.16,168,168,0,0,0,23.94-27.73c3.54-5,6.82-10.25,10-15.54,1.56-2.65,3.11-5.32,4.58-8s2.94-5.43,4.4-8.16c-2.4,5.7-4.94,11.35-7.77,16.87s-5.87,10.94-9.15,16.22A157.78,157.78,0,0,1,324.61,477a100.21,100.21,0,0,1-31.26,21,76.53,76.53,0,0,1-37.5,5.4,81.28,81.28,0,0,1-18.56-4.37,92.57,92.57,0,0,1-17.13-8.18A129.27,129.27,0,0,1,191.4,466.7a183.59,183.59,0,0,1-21.91-30.25A229.45,229.45,0,0,1,153.49,402.91Z" transform="translate(-44.99 -63.23)"/><path class="cls-4" d="M177.06,446.67a243.51,243.51,0,0,1,6.09,31.65,177.65,177.65,0,0,1,1.09,32.38c-.09,1.35-.15,2.71-.27,4.06l-.45,4.06c-.24,2.71-.79,5.38-1.24,8.07-.2,1.35-.52,2.68-.83,4l-.92,4c-.34,1.32-.76,2.62-1.14,3.94s-.72,2.64-1.21,3.92a99.64,99.64,0,0,1-15.64,28.85l-.62.82-.69.77-1.36,1.55-2.74,3.09-2.95,2.88-1.47,1.43a19.86,19.86,0,0,1-1.52,1.39L148,586.18a36,36,0,0,1-3.22,2.55l-3.32,2.41-1.67,1.2-1.75,1.08a135.86,135.86,0,0,1-29.47,13.9,196.61,196.61,0,0,1-31.5,7.52l-8,1.13-8,.79-4,.37-4,.21-8,.38,8-1.13,4-.53,4-.67,7.91-1.33,7.84-1.64c2.62-.48,5.2-1.17,7.78-1.8s5.19-1.23,7.72-2,5.11-1.47,7.63-2.3l7.51-2.62a141.6,141.6,0,0,0,28.19-14.2,95,95,0,0,0,38.24-48.26,126.71,126.71,0,0,0,6.65-30.8C182.39,489.28,180.38,467.84,177.06,446.67Z" transform="translate(-44.99 -63.23)"/><path class="cls-4" d="M340.45,456.58a94.07,94.07,0,0,0,2.08,28.92,120.08,120.08,0,0,0,9.76,27.13A151,151,0,0,0,367.6,537,163.93,163.93,0,0,0,387,558.33a162.22,162.22,0,0,0,22.73,17.72,150.19,150.19,0,0,0,25.52,13.39c17.82,7.22,37.36,10.69,56.84,8.48a95.3,95.3,0,0,1-29.35,1.73,116.68,116.68,0,0,1-28.88-6.57,140.71,140.71,0,0,1-26.67-13,158.54,158.54,0,0,1-43.38-40.18,140.37,140.37,0,0,1-15.05-25.58A112.39,112.39,0,0,1,340.13,486,84,84,0,0,1,340.45,456.58Z" transform="translate(-44.99 -63.23)"/><path class="cls-4" d="M134.63,332.6a172.45,172.45,0,0,1-15-41.12A185,185,0,0,1,116,269.76c-.21-1.83-.4-3.65-.53-5.49s-.31-3.66-.38-5.5c-.2-3.67-.26-7.35-.26-11a202.14,202.14,0,0,1,4.89-43.83,181.43,181.43,0,0,1,6.17-21.24,135.28,135.28,0,0,1,9.05-20.26l.46-.83.88-.26c7.39-2.19,14.66-4.74,21.82-7.56a177.74,177.74,0,0,0,20.83-9.87c1.69-.9,3.32-1.92,5-2.92s3.24-2.07,4.84-3.15a108.77,108.77,0,0,0,9.22-6.93,102.3,102.3,0,0,0,16-16.7,90.91,90.91,0,0,1-14.82,18.07,108.54,108.54,0,0,1-9,7.62c-1.57,1.17-3.13,2.37-4.78,3.45s-3.24,2.22-4.92,3.23a161.44,161.44,0,0,1-20.86,10.89,223.46,223.46,0,0,1-22,8.24l1.34-1.09c-1.64,3.17-3.2,6.39-4.58,9.69-.74,1.63-1.37,3.31-2,5s-1.28,3.35-1.86,5.05a192.51,192.51,0,0,0-5.9,20.71,216.08,216.08,0,0,0-5.3,42.79c-.08,3.6-.09,7.2,0,10.81,0,1.8.11,3.6.19,5.4s.18,3.6.33,5.4c.54,7.19,1.46,14.36,2.7,21.48A210.79,210.79,0,0,0,134.63,332.6Z" transform="translate(-44.99 -63.23)"/><path class="cls-4" d="M392.75,324.32a131.18,131.18,0,0,0,3.93-19c.93-6.38,1.57-12.8,2.07-19.23s.77-12.86.89-19.3,0-12.86-.23-19.28-.79-12.82-1.54-19.17a163.11,163.11,0,0,0-3.24-18.85,99,99,0,0,0-5.9-18,47,47,0,0,0-10.39-15.06l.41.28c-6.43-3.7-12.8-7.55-19-11.69s-12.2-8.52-17.92-13.29a153.42,153.42,0,0,1-16.16-15.37,103.29,103.29,0,0,1-13.11-17.93,124,124,0,0,0,14.47,16.61,174.57,174.57,0,0,0,16.79,14.18q8.79,6.57,18.16,12.35t19,11.06l.21.12.19.17c5.24,4.6,8.92,10.49,11.75,16.53a95,95,0,0,1,6.29,18.86,190.58,190.58,0,0,1,4.35,39c.13,6.52,0,13-.39,19.55l-.31,4.88-.39,4.87c-.32,3.24-.67,6.48-1.09,9.71q-1.22,9.69-3.28,19.24A109.83,109.83,0,0,1,392.75,324.32Z" transform="translate(-44.99 -63.23)"/><path class="cls-4" d="M136.91,162c-3.91-2.72-7.72-5.6-11.36-8.7a98.24,98.24,0,0,1-10.18-10.12,66.92,66.92,0,0,1-8.29-11.82,46.78,46.78,0,0,1-5-13.7,37,37,0,0,1,.22-14.71,39.92,39.92,0,0,1,5.86-13.55c5.51-8.26,13.57-14.45,22.32-18.79a71.31,71.31,0,0,1,28.3-7.27A58.85,58.85,0,0,1,187.65,69a48.46,48.46,0,0,1,21.16,20.65c4.76,8.8,7,18.66,7.63,28.4l-2.95-2.28c8.19-1.57,16.33-3.5,24.59-5.31a157.5,157.5,0,0,1,25.29-3.85,96.48,96.48,0,0,1,25.66,2.1,131.44,131.44,0,0,1,24.27,8.08l-2.49,1.28a95.84,95.84,0,0,1,10.32-27A59,59,0,0,1,330,79.53a44.9,44.9,0,0,1,11.9-8.59,42,42,0,0,1,14.11-4,47.55,47.55,0,0,1,14.58.81,61.28,61.28,0,0,1,25.84,12.68,65.18,65.18,0,0,1,17.78,22.48A49.64,49.64,0,0,1,418.86,131a49.1,49.1,0,0,1-12.21,25.58c-6.31,7.18-14.15,12.81-22.44,17.4,8.18-4.79,15.86-10.59,21.93-17.84s10.42-16,11.52-25.3a48.11,48.11,0,0,0-5-27.21,63.41,63.41,0,0,0-17.63-21.5,59.81,59.81,0,0,0-25-11.8,44.66,44.66,0,0,0-13.74-.59,38.8,38.8,0,0,0-13.07,3.93,41.85,41.85,0,0,0-11,8.14,55.18,55.18,0,0,0-8.25,11,92.89,92.89,0,0,0-9.68,26.09L313.9,121l-2-.81a132.57,132.57,0,0,0-23.73-7.27,92.11,92.11,0,0,0-24.51-1.61,164.68,164.68,0,0,0-24.52,4c-8.16,1.82-16.37,3.85-24.71,5.43l-2.77.53-.18-2.81c-.59-9.23-2.65-18.4-6.95-26.42a44.19,44.19,0,0,0-19-18.77A54.44,54.44,0,0,0,159,67.64a69,69,0,0,0-26.79,6.41c-8.36,3.91-16,9.64-21.32,17.14a36.75,36.75,0,0,0-5.77,12.37,35.12,35.12,0,0,0-.6,13.67,44.69,44.69,0,0,0,4.25,13.23,65.41,65.41,0,0,0,7.64,11.85A121.8,121.8,0,0,0,136.91,162Z" transform="translate(-44.99 -63.23)"/><path class="cls-4" d="M291.28,259.5c7.49-2.67,15.05-5.21,22.77-7.36a145.62,145.62,0,0,1,23.62-4.79A75.54,75.54,0,0,1,349.8,247a44.92,44.92,0,0,1,12,2.16,31.48,31.48,0,0,1,10.59,5.81,32.57,32.57,0,0,1,7.5,9.18,31.91,31.91,0,0,0-8.25-8.18,29.59,29.59,0,0,0-10.5-4.4,42.31,42.31,0,0,0-11.34-.82,72.45,72.45,0,0,0-11.34,1.57,140.56,140.56,0,0,0-22,7c-7.2,2.85-14.27,6.09-21.29,9.47h0a5,5,0,1,1-4.35-9Z" transform="translate(-44.99 -63.23)"/><path class="cls-4" d="M234,268.72c-7-3.38-14.09-6.62-21.29-9.47a140.56,140.56,0,0,0-22-7,72.61,72.61,0,0,0-11.34-1.57,42.28,42.28,0,0,0-11.34.82,29.59,29.59,0,0,0-10.5,4.4,32.11,32.11,0,0,0-8.26,8.18,32.61,32.61,0,0,1,7.51-9.18,31.48,31.48,0,0,1,10.59-5.81,44.85,44.85,0,0,1,12-2.16,75.67,75.67,0,0,1,12.14.39,145.84,145.84,0,0,1,23.62,4.79c7.71,2.15,15.28,4.69,22.77,7.36a5,5,0,1,1-3.37,9.43l-.49-.2Z" transform="translate(-44.99 -63.23)"/><path class="cls-4" d="M106.85,277.33q18.44-2,37-2.94c6.18-.33,12.37-.51,18.56-.6s12.39-.08,18.59.13a255.27,255.27,0,0,1,37.14,3.57A134.72,134.72,0,0,1,236.39,282a71.33,71.33,0,0,1,17.28,8.19l-1.38-.43,14.64,0,14.64,0-1.1.26a150,150,0,0,1,32.38-11.39c5.56-1.29,11.18-2.32,16.81-3.14s11.31-1.36,17-1.76,11.34-.61,17-.64,11.33,0,17,.3q17,.76,33.77,3c-11.28-.49-22.56-.82-33.81-.71s-22.49.64-33.65,1.75c-5.57.57-11.13,1.31-16.64,2.25s-11,2-16.39,3.39a156.68,156.68,0,0,0-31.25,11.36l-.51.26h-.59l-14.64,0-14.64-.05h-.75l-.62-.42a67,67,0,0,0-16.06-7.7,132.52,132.52,0,0,0-17.58-4.65c-6-1.19-12.05-2-18.13-2.76s-12.21-1.22-18.35-1.59-12.28-.61-18.44-.76-12.31-.17-18.48-.18C131.55,276.63,119.2,277,106.85,277.33Z" transform="translate(-44.99 -63.23)"/><path class="cls-4" d="M131.81,311.89q7,7.89,14,15.83l7,7.95,3.48,4c.58.67,1.15,1.28,1.74,1.92s1.2,1.22,1.85,1.77a40.07,40.07,0,0,0,17.92,9.36,42.63,42.63,0,0,0,5,.8c1.68.16,3.46.27,5.19.38,3.48.2,7,.3,10.45.28a155.35,155.35,0,0,0,20.8-1.48c1.72-.24,3.43-.51,5.14-.81.4-.07.91-.14,1.22-.22a7.52,7.52,0,0,0,1-.29,8.58,8.58,0,0,0,1.91-.91,9.19,9.19,0,0,0,3-3,8.54,8.54,0,0,0,.51-.94l.55-1.17,1.1-2.4c5.86-12.82,11.87-25.56,17.81-38.34l.65-1.42h1.58q11.76-.06,23.52,0h1.51l.68,1.32c6.38,12.36,12.81,24.68,19.1,37.08l1.19,2.33.59,1.16c.2.38.35.66.55,1a11.69,11.69,0,0,0,2.92,3.23,11.81,11.81,0,0,0,3.91,1.93,15.89,15.89,0,0,0,2.28.41l2.57.34c6.86.89,13.72,1.64,20.6,2,3.43.19,6.92.35,10.28.28a42.62,42.62,0,0,0,34.26-18.48l5.85-8.63q5.85-8.64,11.79-17.21-5.31,9-10.7,17.91c-1.79,3-3.57,6-5.41,8.93a44.74,44.74,0,0,1-35.66,20.94c-3.59.17-7.05.09-10.57,0-7-.23-14-.78-20.95-1.55l-2.6-.3a19.27,19.27,0,0,1-2.85-.48,16,16,0,0,1-9.54-7c-.27-.41-.53-.9-.74-1.28L295.7,346l-1.22-2.3c-6.55-12.27-13-24.61-19.42-36.92l2.19,1.33q-11.76,0-23.52,0L256,306.7c-6,12.73-12,25.5-18.12,38.19l-1.14,2.39-.59,1.21a14.14,14.14,0,0,1-.77,1.37,13.92,13.92,0,0,1-4.47,4.37,13.74,13.74,0,0,1-2.87,1.3,11.47,11.47,0,0,1-1.53.4c-.54.11-.91.15-1.37.23q-2.66.42-5.31.75a151.4,151.4,0,0,1-21.38,1q-5.34-.12-10.67-.57c-1.78-.15-3.52-.31-5.33-.56a43,43,0,0,1-5.38-1.06A41.92,41.92,0,0,1,158.28,345c-.67-.62-1.25-1.32-1.87-2s-1.19-1.39-1.73-2.08l-3.29-4.14-6.55-8.29Q138.29,320.26,131.81,311.89Z" transform="translate(-44.99 -63.23)"/><path class="cls-4" d="M127,306.82A128.37,128.37,0,0,1,135.23,277a180.53,180.53,0,0,1,14.19-27.67,214.22,214.22,0,0,1,18.36-25.17,229.36,229.36,0,0,1,21.76-22.33,212.84,212.84,0,0,1,24.78-18.95,177,177,0,0,1,27.55-14.67,144.74,144.74,0,0,1,29.8-9.05,118.16,118.16,0,0,1,30.93-1.74c-20.64.46-40.72,5.79-59.16,14.36a193.45,193.45,0,0,0-26.51,15.05,218.62,218.62,0,0,0-24.07,18.73,236.54,236.54,0,0,0-21.5,21.68,240.47,240.47,0,0,0-18.67,24.2A205.81,205.81,0,0,0,137.46,278,152.82,152.82,0,0,0,127,306.82Z" transform="translate(-44.99 -63.23)"/><path class="cls-4" d="M126.13,286.73a136,136,0,0,1,9-29.54,192.75,192.75,0,0,1,14.51-27.34A218.36,218.36,0,0,1,168.06,205a233.44,233.44,0,0,1,21.66-22.15A214.24,214.24,0,0,1,214.31,164a176.79,176.79,0,0,1,27.21-14.8A152.06,152.06,0,0,1,271,139.76a125.74,125.74,0,0,1,30.77-2.46,131.26,131.26,0,0,0-30.56,3.42,151.92,151.92,0,0,0-29.08,9.87A201.45,201.45,0,0,0,191,184.33a234.14,234.14,0,0,0-40.16,46.36A192.63,192.63,0,0,0,136,257.58,142.74,142.74,0,0,0,126.13,286.73Z" transform="translate(-44.99 -63.23)"/><path class="cls-4" d="M125.11,274.45a113.14,113.14,0,0,1,5.68-30.84A146.52,146.52,0,0,1,143.93,215a171.91,171.91,0,0,1,18.54-25.47,198.65,198.65,0,0,1,22.55-22,203.23,203.23,0,0,1,25.78-18.12,184.28,184.28,0,0,1,28.33-13.77,169.87,169.87,0,0,1,30.3-8.51,141.93,141.93,0,0,1,31.33-2.1,149.16,149.16,0,0,0-31.14,3.06,169.37,169.37,0,0,0-29.93,9,199.65,199.65,0,0,0-53.4,32,189.89,189.89,0,0,0-41,46.74,146.45,146.45,0,0,0-13.53,28.12A117.51,117.51,0,0,0,125.11,274.45Z" transform="translate(-44.99 -63.23)"/><path class="cls-4" d="M391.1,301.46a396.36,396.36,0,0,0-8.68-40.64c-1.88-6.64-3.88-13.23-6.27-19.68s-4.94-12.83-7.9-19a183.16,183.16,0,0,0-9.7-18.13,181.23,181.23,0,0,0-11.62-17,191.52,191.52,0,0,0-28.82-29.68A134.13,134.13,0,0,1,350,184.56a151.24,151.24,0,0,1,12.62,16.93A174.35,174.35,0,0,1,372.77,220a189.24,189.24,0,0,1,13.42,39.88A209.21,209.21,0,0,1,391.1,301.46Z" transform="translate(-44.99 -63.23)"/><path class="cls-3" d="M271.61,372.26c1.13-.45,2.26-.83,3.4-1.22s2.28-.74,3.42-1.06a11.52,11.52,0,0,1,3.45-.91,8.25,8.25,0,0,1,1.83.19,6.69,6.69,0,0,1,1.91.66l.06.32a6.66,6.66,0,0,1-1.59,1.26,8.37,8.37,0,0,1-1.68.76,11.67,11.67,0,0,1-3.55.27c-1.19.06-2.39.09-3.59.1s-2.39,0-3.6-.05Z" transform="translate(-44.99 -63.23)"/><path class="cls-3" d="M256.6,372.58c-1.21.05-2.41.05-3.61.05s-2.4,0-3.59-.1a11.69,11.69,0,0,1-3.55-.27,8.37,8.37,0,0,1-1.68-.76,6.66,6.66,0,0,1-1.59-1.26l.06-.32a6.69,6.69,0,0,1,1.91-.66,8.25,8.25,0,0,1,1.83-.19,11.44,11.44,0,0,1,3.45.91c1.14.32,2.29.68,3.42,1.06s2.27.77,3.4,1.22Z" transform="translate(-44.99 -63.23)"/><path class="cls-4" d="M257.13,371.45c-1.22.06-2.43,0-3.64,0s-2.4-.08-3.6-.16-2.46.19-3.55-.35a7.07,7.07,0,0,1-1.62-1,6.49,6.49,0,0,1-1.48-1.55.28.28,0,0,1,.08-.39h0a6.33,6.33,0,0,1,2-.8,6.73,6.73,0,0,1,1.86-.21c1.22-.05,2.27.72,3.39,1.13s2.24.85,3.35,1.33,2.21,1,3.3,1.53a.2.2,0,0,1,.1.27A.25.25,0,0,1,257.13,371.45Z" transform="translate(-44.99 -63.23)"/><path class="cls-4" d="M271.25,371.06c1.09-.56,2.2-1,3.31-1.53s2.22-.92,3.35-1.33,2.16-1.18,3.38-1.13a6.64,6.64,0,0,1,1.86.21,6.15,6.15,0,0,1,2,.8.29.29,0,0,1,.09.39h0a6.52,6.52,0,0,1-1.49,1.55,7,7,0,0,1-1.61,1c-1.09.54-2.36.27-3.56.35s-2.39.14-3.59.16-2.42,0-3.64,0a.21.21,0,0,1-.2-.22A.19.19,0,0,1,271.25,371.06Z" transform="translate(-44.99 -63.23)"/><path class="cls-4" d="M212.93,413.78c4.07-1.82,8.22-3.47,12.39-5s8.4-3,12.7-4.27a69.57,69.57,0,0,1,13.27-2.87,17.93,17.93,0,0,1,1.82-.05,11.3,11.3,0,0,1,1.89.27,34.26,34.26,0,0,1,3.35.95c2.16.72,4.24,1.52,6.34,2.39h-1.15c2.26-.94,4.51-1.82,6.86-2.56a29.77,29.77,0,0,1,3.67-1,7.64,7.64,0,0,1,1.05-.14c.4,0,.67,0,1,0,.65,0,1.27.05,1.9.09a57.69,57.69,0,0,1,7.27,1.18c2.37.51,4.73,1.08,7.05,1.73,4.66,1.29,9.25,2.75,13.79,4.34s9.05,3.27,13.47,5.17l-13.92-3.69q-3.48-.91-7-1.77c-2.32-.59-4.65-1.15-7-1.67a101.09,101.09,0,0,0-13.95-2.41,13.59,13.59,0,0,0-3.22.07,27.83,27.83,0,0,0-3.27.91c-2.22.75-4.46,1.59-6.63,2.47l-.59.24-.57-.25c-2-.85-4.06-1.66-6.11-2.37-1-.34-2.05-.68-3.05-.93a8.24,8.24,0,0,0-1.4-.26c-.46,0-1,0-1.51,0a48.2,48.2,0,0,0-6.42.87c-2.15.41-4.3.89-6.45,1.41q-6.43,1.59-12.85,3.44C221.47,411.24,217.21,412.51,212.93,413.78Z" transform="translate(-44.99 -63.23)"/><path class="cls-4" d="M217.07,416.36A166.89,166.89,0,0,0,241,426.89l1.53.53,1.57.42,3.12.87a26.15,26.15,0,0,0,3.15.73l3.16.64c2.12.37,4.26.56,6.39.86,2.14.09,4.28.22,6.43.23a82.7,82.7,0,0,0,25.33-4.45,179.18,179.18,0,0,0,24-10.36,111,111,0,0,1-23.23,12.56c-1,.4-2.05.87-3.12,1.18l-3.18,1c-2.11.72-4.31,1.13-6.48,1.64l-1.64.36c-.55.09-1.11.15-1.66.23l-3.33.44a28.7,28.7,0,0,1-3.34.25l-3.36.16a70.93,70.93,0,0,1-26.15-5.09A106.75,106.75,0,0,1,217.07,416.36Z" transform="translate(-44.99 -63.23)"/><path class="cls-4" d="M225.53,413.78c6.92.66,13.8,1.35,20.67,1.83,1.72.1,3.44.19,5.16.32l5.16.25,5.15.18,5.16.07H272l5.16-.11,5.15-.18c1.72-.11,3.44-.19,5.16-.27,6.87-.44,13.74-1.13,20.64-1.91a125.28,125.28,0,0,1-20.42,4.24c-1.73.21-3.46.4-5.2.56l-5.21.4-5.23.2-5.23.06-5.22-.14c-1.74-.1-3.48-.17-5.22-.28l-5.21-.46c-1.73-.19-3.46-.4-5.19-.62A149.71,149.71,0,0,1,225.53,413.78Z" transform="translate(-44.99 -63.23)"/><path class="cls-4" d="M129.57,330.37c-1.87-1.52-3.72-3-5.67-4.31a18,18,0,0,0-6.08-2.84,4.3,4.3,0,0,0-2.66.24,3.8,3.8,0,0,0-1.65,1.88,10.88,10.88,0,0,0-.84,2.93,22,22,0,0,0-.26,3.28,63.69,63.69,0,0,0,1.74,13.61,116.43,116.43,0,0,0,3.91,13.39,100.25,100.25,0,0,0,12.52,24.76,49.55,49.55,0,0,0,4.44,5.24,29,29,0,0,0,5.26,4.32,18.85,18.85,0,0,0,6.23,2.66,17.43,17.43,0,0,0,7,.07,15.62,15.62,0,0,1-7.16,1.3A19.88,19.88,0,0,1,139.1,395a36.3,36.3,0,0,1-11.57-9.28,68.15,68.15,0,0,1-8.25-12.16,96.47,96.47,0,0,1-9.77-27.48,55.48,55.48,0,0,1-1-14.77,24.19,24.19,0,0,1,.62-3.81,12.4,12.4,0,0,1,1.52-3.79,6.28,6.28,0,0,1,7.77-2.88,18.38,18.38,0,0,1,6.31,4.12A46.31,46.31,0,0,1,129.57,330.37Z" transform="translate(-44.99 -63.23)"/><path class="cls-4" d="M399.34,324.32a27.17,27.17,0,0,1,4.93-4.95,11,11,0,0,1,3.3-1.7,5.73,5.73,0,0,1,4.13.26,7,7,0,0,1,2.9,3,15.07,15.07,0,0,1,1.38,3.55,31.3,31.3,0,0,1,.88,7.2,66.65,66.65,0,0,1-1.27,14.06A97.58,97.58,0,0,1,412,359.29a91.89,91.89,0,0,1-5.57,12.91,62.61,62.61,0,0,1-7.91,11.74,32.7,32.7,0,0,1-11.27,8.79,18.84,18.84,0,0,1-7,1.59,15.93,15.93,0,0,1-6.86-1.39,17.44,17.44,0,0,0,12.76-2.38,26.06,26.06,0,0,0,5.08-4.05,41.64,41.64,0,0,0,4.26-5c5.16-7.16,8.86-15.41,11.8-23.84.75-2.11,1.41-4.25,2-6.4s1.17-4.32,1.67-6.5a84.81,84.81,0,0,0,2-13.16,31.59,31.59,0,0,0-.2-6.47,11.39,11.39,0,0,0-.74-2.95,4.58,4.58,0,0,0-1.54-2.12,3.48,3.48,0,0,0-2.52-.51,10.43,10.43,0,0,0-3,1A35,35,0,0,0,399.34,324.32Z" transform="translate(-44.99 -63.23)"/><path class="cls-3" d="M138.2,658.09a73.77,73.77,0,0,0,14.34,3.53c4.8.73,9.62,1.15,14.46,1.42,9.7.56,19.5.61,29.44,1l7.48.36c2.5.18,5,.34,7.53.59a114.91,114.91,0,0,1,15.18,2.37,60.91,60.91,0,0,1,7.54,2.28,34.86,34.86,0,0,1,7.21,3.64,20,20,0,0,1,5.83,5.76,14.79,14.79,0,0,1,1.69,3.66,15.16,15.16,0,0,1,.58,3.85,16.35,16.35,0,0,0-4.38-5.69,19.9,19.9,0,0,0-6-3.22,56.29,56.29,0,0,0-13.75-2.51c-9.53-.76-19.38-.68-29.32-1.1a184.31,184.31,0,0,1-30.1-3.21,81.49,81.49,0,0,1-14.76-4.49A41.59,41.59,0,0,1,138.2,658.09Z" transform="translate(-44.99 -63.23)"/><path class="cls-4" d="M138.2,655.12a57.3,57.3,0,0,0,13.85,5.23,113.82,113.82,0,0,0,14.57,2.54c9.83,1.09,19.74,1.42,29.68,1.78s19.95.75,29.87,2.53a47.07,47.07,0,0,1,14.39,4.68,19.69,19.69,0,0,1,5.89,4.84,15.36,15.36,0,0,1,2,3.25,17.09,17.09,0,0,1,1.07,3.6,15.64,15.64,0,0,0-3.62-6.35,19.37,19.37,0,0,0-5.92-4.13,35.34,35.34,0,0,0-6.89-2.39,73.13,73.13,0,0,0-7.23-1.37c-4.87-.65-9.8-1-14.75-1.28s-9.91-.44-14.88-.61c-9.94-.42-19.94-.87-29.86-2.42a97.25,97.25,0,0,1-14.66-3.36A49.45,49.45,0,0,1,138.2,655.12Z" transform="translate(-44.99 -63.23)"/><path class="cls-4" d="M319.59,158.4a655.94,655.94,0,0,1,44.31,72.08q9.84,18.77,17.91,38.44a309.35,309.35,0,0,1,13.29,40.36,195.81,195.81,0,0,1,6,42.17A145.19,145.19,0,0,1,400,372.8a116.43,116.43,0,0,1-4.68,20.87,105.55,105.55,0,0,1-20.93,36.95,130.79,130.79,0,0,1-32.78,26.67l4.36-3,4.25-3.13,4.16-3.24c1.34-1.14,2.7-2.24,4-3.4a122.32,122.32,0,0,0,14.57-15.11,106.82,106.82,0,0,0,19.52-36.65,122.2,122.2,0,0,0,4.21-20.39,143.71,143.71,0,0,0,.81-20.85,195.12,195.12,0,0,0-6.06-41.35,313.59,313.59,0,0,0-12.94-39.94c-5.11-13.07-11-25.83-17.21-38.43s-12.95-25-20-37.17q-5.22-9.18-10.67-18.23l-5.51-9Z" transform="translate(-44.99 -63.23)"/><path class="cls-4" d="M293.79,157.9c-7.45,3.11-14.88,6.3-22.21,9.65S257,174.48,249.9,178.28a281.85,281.85,0,0,0-40.72,25.8c-12.65,9.83-24.4,21-33.66,34s-15.89,27.81-18.05,43.53a97.45,97.45,0,0,0-.85,11.83v3l.13,3c.09,2,.25,4,.37,6l1.58,24.18q.75,12.09,1.39,24.21c.41,8.07.77,16.16.89,24.25s.1,16.21-.35,24.32a145.26,145.26,0,0,1-3.14,24.18,73.88,73.88,0,0,1-9.15,22.57,68.09,68.09,0,0,1-7.37,9.68,84.68,84.68,0,0,1-8.9,8.25,75.41,75.41,0,0,0,15.41-18.45,72.9,72.9,0,0,0,8.19-22.45,142.54,142.54,0,0,0,2.58-23.89c.27-8,.13-16.08-.17-24.13-.66-16.09-1.75-32.2-2.91-48.3l-1.66-24.18c-.13-2-.3-4-.4-6.06l-.14-3.08,0-3.09a92.45,92.45,0,0,1,.89-12.32,100.54,100.54,0,0,1,18.89-45c9.66-13.25,21.72-24.51,34.78-34.16,6.53-4.84,13.31-9.32,20.27-13.49s14.06-8.06,21.32-11.66A433.77,433.77,0,0,1,293.79,157.9Z" transform="translate(-44.99 -63.23)"/><path class="cls-4" d="M192.59,75.72A98.86,98.86,0,0,1,184.11,100c-1,1.9-1.94,3.85-3.07,5.69l-1.67,2.78c-.56.92-1.12,1.85-1.74,2.73a117.07,117.07,0,0,1-7.8,10.34c-1.44,1.62-2.81,3.29-4.35,4.81s-3,3.14-4.59,4.56-3.15,3-4.84,4.29-3.29,2.79-5.05,4a129,129,0,0,1-21.95,13.41,232.14,232.14,0,0,0,20.56-15.15c3.23-2.74,6.42-5.54,9.4-8.53a124,124,0,0,0,8.64-9.27A130.83,130.83,0,0,0,182.15,99,148.63,148.63,0,0,0,192.59,75.72Z" transform="translate(-44.99 -63.23)"/><path class="cls-4" d="M182.87,70.14a95.76,95.76,0,0,1-8.18,23.41c-1,1.83-1.87,3.72-3,5.49l-1.61,2.67c-.54.9-1.08,1.79-1.68,2.64a110.23,110.23,0,0,1-7.52,10c-1.39,1.55-2.7,3.17-4.19,4.63s-2.86,3-4.43,4.4-3,2.84-4.66,4.14-3.17,2.69-4.87,3.88a124.62,124.62,0,0,1-21.15,12.93,225.74,225.74,0,0,0,19.81-14.61c3.12-2.64,6.19-5.34,9.07-8.22a120.93,120.93,0,0,0,8.32-8.93,125.49,125.49,0,0,0,14-20A143.82,143.82,0,0,0,182.87,70.14Z" transform="translate(-44.99 -63.23)"/><path class="cls-4" d="M136.79,157a49.19,49.19,0,0,0,10.31-4.18c3.3-1.7,6.49-3.61,9.62-5.59,6.25-4,12.29-8.35,18.17-12.9s11.62-9.28,17.18-14.21c2.76-2.48,5.5-5,8.11-7.65,1.31-1.31,2.59-2.66,3.78-4.08.59-.71,1.16-1.44,1.68-2.21a5.64,5.64,0,0,0,1.11-2.5,5.79,5.79,0,0,1-.85,2.66,28.2,28.2,0,0,1-1.52,2.38c-1.09,1.53-2.27,3-3.48,4.42-2.47,2.83-5.08,5.52-7.77,8.12a207.91,207.91,0,0,1-17,14.65,177.71,177.71,0,0,1-18.58,12.65,98.37,98.37,0,0,1-10,5.14A43.57,43.57,0,0,1,136.79,157Z" transform="translate(-44.99 -63.23)"/><path class="cls-4" d="M109.55,120.75A38.11,38.11,0,0,1,114,112a86,86,0,0,1,6-7.88,156.56,156.56,0,0,1,13.7-14.16,185.73,185.73,0,0,1,15.21-12.51c2.65-1.94,5.37-3.79,8.19-5.49,1.41-.84,2.85-1.64,4.34-2.35a21.51,21.51,0,0,1,2.28-1,5.08,5.08,0,0,1,2.43-.35,5,5,0,0,0-2.33.59A22.08,22.08,0,0,0,161.61,70c-1.41.82-2.77,1.72-4.1,2.66-2.67,1.86-5.26,3.84-7.82,5.86q-7.63,6.11-14.85,12.72c-4.81,4.39-9.47,9-13.86,13.76-2.19,2.41-4.32,4.88-6.28,7.47A43.41,43.41,0,0,0,109.55,120.75Z" transform="translate(-44.99 -63.23)"/><path class="cls-4" d="M117,127a38.14,38.14,0,0,1,4.46-8.77,85.94,85.94,0,0,1,5.94-7.88,156.67,156.67,0,0,1,13.71-14.16A182.41,182.41,0,0,1,156.3,83.67c2.65-1.94,5.36-3.79,8.18-5.49,1.42-.84,2.86-1.64,4.34-2.35a20.83,20.83,0,0,1,2.29-1,5.05,5.05,0,0,1,2.42-.35,5,5,0,0,0-2.33.59A22.08,22.08,0,0,0,169,76.24c-1.41.82-2.76,1.72-4.09,2.66-2.68,1.86-5.27,3.84-7.82,5.86q-7.65,6.1-14.86,12.72c-4.81,4.39-9.46,9-13.86,13.76-2.19,2.41-4.31,4.88-6.28,7.47A43.91,43.91,0,0,0,117,127Z" transform="translate(-44.99 -63.23)"/><path class="cls-4" d="M319.59,114.19C324.27,119.3,329,124.28,334,129a165.58,165.58,0,0,0,15.79,13.09l4.18,3,4.3,2.79,4.38,2.66q2.25,1.23,4.48,2.5a186.36,186.36,0,0,0,18.75,8.63A93.77,93.77,0,0,1,366.17,155c-1.57-.76-3.14-1.52-4.7-2.31l-4.58-2.54-4.44-2.78c-1.43-1-2.89-2-4.31-3s-2.79-2.11-4.15-3.19-2.71-2.21-4-3.37-2.58-2.35-3.83-3.55-2.48-2.45-3.68-3.72A111.15,111.15,0,0,1,319.59,114.19Z" transform="translate(-44.99 -63.23)"/><path class="cls-4" d="M328.49,106.59c4.68,5.12,9.43,10.1,14.44,14.79a165.58,165.58,0,0,0,15.79,13.09l4.18,2.95,4.3,2.8,4.38,2.65q2.25,1.23,4.48,2.51A184.11,184.11,0,0,0,394.81,154a93.74,93.74,0,0,1-19.74-6.62c-1.57-.76-3.14-1.52-4.7-2.31l-4.58-2.54-4.44-2.78c-1.44-1-2.89-2-4.31-3s-2.79-2.11-4.16-3.2-2.7-2.2-4-3.36-2.58-2.35-3.84-3.55-2.48-2.45-3.67-3.72A110.71,110.71,0,0,1,328.49,106.59Z" transform="translate(-44.99 -63.23)"/><path class="cls-4" d="M409.59,134.72q-6.19-8.34-13.12-16a152.52,152.52,0,0,0-14.86-14.24,136.08,136.08,0,0,0-16.73-12,154.49,154.49,0,0,0-18.36-9.47,105.39,105.39,0,0,1,19.05,8.28,113.12,113.12,0,0,1,17.16,11.81A124.76,124.76,0,0,1,409.59,134.72Z" transform="translate(-44.99 -63.23)"/><path class="cls-4" d="M415.18,126.58c-3.75-5-7.7-9.8-11.89-14.38a137.79,137.79,0,0,0-13.42-12.83A124.23,124.23,0,0,0,374.8,88.56,140.79,140.79,0,0,0,358.26,80a91.65,91.65,0,0,1,17.23,7.41A101.28,101.28,0,0,1,391,98,111.18,111.18,0,0,1,415.18,126.58Z" transform="translate(-44.99 -63.23)"/><path class="cls-4" d="M399.62,144.34c-4.34-5.41-8.75-10.7-13.44-15.7a163.91,163.91,0,0,0-14.9-14.1l-4-3.23-4.1-3.07L359,105.3c-1.44-.91-2.88-1.85-4.31-2.79a184,184,0,0,0-18.14-9.84,94.15,94.15,0,0,1,19.27,7.91c1.51.86,3,1.72,4.53,2.61l4.4,2.84,4.25,3.06c1.37,1.09,2.76,2.15,4.11,3.25s2.64,2.29,3.94,3.46,2.55,2.38,3.78,3.62,2.42,2.51,3.6,3.8,2.31,2.61,3.42,4A112,112,0,0,1,399.62,144.34Z" transform="translate(-44.99 -63.23)"/><path class="cls-4" d="M338.85,158.4a270,270,0,0,1,20,24.38,189,189,0,0,1,16.39,27,154.66,154.66,0,0,1,15.85,60.75,203.24,203.24,0,0,0-6.3-30.73,178.25,178.25,0,0,0-11.34-29.13,222.82,222.82,0,0,0-15.87-27C351.67,175,345.34,166.66,338.85,158.4Z" transform="translate(-44.99 -63.23)"/><path class="cls-4" d="M352.11,163.51c1.53,1.69,3.05,3.39,4.54,5.1l4.42,5.21c1.42,1.78,2.86,3.55,4.25,5.35s2.77,3.63,4.1,5.48a162,162,0,0,1,14.21,23.4,133.89,133.89,0,0,1,9.58,25.66c1.16,4.42,2.05,8.9,2.78,13.41.28,2.26.64,4.51.85,6.78s.37,4.54.53,6.81q-.51-3.37-1-6.75c-.34-2.25-.83-4.47-1.24-6.7-.89-4.44-1.93-8.86-3.23-13.2a155.1,155.1,0,0,0-9.84-25.24,195.63,195.63,0,0,0-13.75-23.41c-1.26-1.89-2.59-3.72-3.88-5.59l-4-5.48-4.11-5.44C354.89,167.11,353.49,165.32,352.11,163.51Z" transform="translate(-44.99 -63.23)"/></svg>